<?xml version="1.0" encoding="utf-8"?>
<svg xmlns="http://www.w3.org/2000/svg" viewBox="0 0 48 48" width="144" height="144">
  <path d="M12 3C8.691 3 6 5.691 6 9C6 12.309 8.691 15 12 15C15.309 15 18 12.309 18 9C18 5.691 15.309 3 12 3 z M 26 3C22.691 3 20 5.691 20 9C20 12.309 22.691 15 26 15C29.993 15 34.152281 10.516859 34.613281 10.005859C35.128281 9.4348594 35.128281 8.5670937 34.613281 7.9960938C34.152281 7.4840938 29.993 3 26 3 z M 6.5 17C4.57 17 3 18.57 3 20.5L3 30C3 34.963 7.038 39 12 39C14.104 39 16.036313 38.268688 17.570312 37.054688L17.572266 37.052734C15.945266 35.111734 15 32.634 15 30L15 20.5C15 19.171 15.474719 17.951 16.261719 17L6.5 17 z M 20.5 17C18.57 17 17 18.57 17 20.5L17 30C17 33.694 19.237734 36.871813 22.427734 38.257812C22.157734 37.214813 22 36.127 22 35C22 27.82 27.82 22 35 22L35 20.5C35 18.57 33.43 17 31.5 17L20.5 17 z M 35 24C28.925 24 24 28.925 24 35C24 41.075 28.925 46 35 46C41.075 46 46 41.075 46 35C46 28.925 41.075 24 35 24 z M 35 27C35.552 27 36 27.448 36 28L36 34L42 34C42.552 34 43 34.448 43 35C43 35.552 42.552 36 42 36L36 36L36 42C36 42.552 35.552 43 35 43C34.448 43 34 42.552 34 42L34 36L28 36C27.448 36 27 35.552 27 35C27 34.448 27.448 34 28 34L34 34L34 28C34 27.448 34.448 27 35 27 z" fill="#FFFFFF" />
</svg>