<?xml version="1.0" encoding="utf-8"?>
<svg xmlns="http://www.w3.org/2000/svg" viewBox="0 0 48 48" width="144" height="144">
  <path d="M23.976562 4.9785156 A 1.50015 1.50015 0 0 0 22.5 6.4980469L22.5 16.498047 A 1.50015 1.50015 0 1 0 25.5 16.498047L25.5 6.4980469 A 1.50015 1.50015 0 0 0 23.976562 4.9785156 z M 37.353516 7.9316406 A 1.50015 1.50015 0 0 0 35.953125 8.8164062L31.726562 17.880859 A 1.5007487 1.5007487 0 0 0 34.447266 19.148438L38.671875 10.083984 A 1.50015 1.50015 0 0 0 37.353516 7.9316406 z M 10.601562 7.9335938 A 1.50015 1.50015 0 0 0 9.328125 10.083984L13.552734 19.148438 A 1.5007487 1.5007487 0 0 0 16.273438 17.880859L12.046875 8.8164062 A 1.50015 1.50015 0 0 0 10.601562 7.9335938 z M 24 25C14.491 25 9.2034063 27.749641 6.4414062 30.056641C4.5304062 31.654641 3.6575781 34.215109 4.1425781 36.662109C4.1535781 36.690109 4.6542969 38.533203 4.6542969 38.533203C5.1912969 40.572203 7.1093594 41.996094 9.3183594 41.996094C9.5573594 41.996094 9.7981563 41.979312 10.035156 41.945312L14.548828 41.302734C16.056828 41.087734 17.284516 39.991219 17.603516 38.574219L18.494141 34.628906C18.615141 34.092906 19.023547 33.665719 19.560547 33.511719C20.380547 33.278719 21.815 33 24 33C26.185 33 27.6185 33.278719 28.4375 33.511719C28.9745 33.664719 29.384859 34.091906 29.505859 34.628906L30.394531 38.574219C30.714531 39.991219 31.941219 41.087734 33.449219 41.302734L37.964844 41.945312C38.201844 41.979312 38.443641 41.996094 38.681641 41.996094C40.891641 41.996094 42.809703 40.573203 43.345703 38.533203C43.345703 38.533203 43.841563 36.702641 43.851562 36.681641C44.346562 34.228641 43.472641 31.658641 41.556641 30.056641C38.796641 27.749641 33.509 25 24 25 z" fill="#FFFFFF" />
</svg>