<?xml version="1.0" encoding="utf-8"?>
<svg xmlns="http://www.w3.org/2000/svg" viewBox="0 0 48 48" width="144" height="144">
  <path d="M36.5,6h-25C8.468,6,6,8.467,6,11.5v25c0,3.033,2.468,5.5,5.5,5.5h25c3.032,0,5.5-2.467,5.5-5.5v-25C42,8.467,39.532,6,36.5,6z M35.561,33.439c0.586,0.585,0.586,1.536,0,2.121C35.268,35.854,34.884,36,34.5,36s-0.768-0.146-1.061-0.439L31,33.121l-2.439,2.439C28.268,35.854,27.884,36,27.5,36s-0.768-0.146-1.061-0.439c-0.586-0.585-0.586-1.536,0-2.121L28.879,31l-2.439-2.439c-0.586-0.585-0.586-1.536,0-2.121c0.586-0.586,1.535-0.586,2.121,0L31,28.879l2.439-2.439c0.586-0.586,1.535-0.586,2.121,0c0.586,0.585,0.586,1.536,0,2.121L33.121,31L35.561,33.439z" fill="#f5f5f5" />
</svg>