<?xml version="1.0" encoding="utf-8"?>
<svg xmlns="http://www.w3.org/2000/svg" viewBox="0 0 48 48" width="144" height="144">
  <path d="M41.513672 2.0019531C40.364922 2.0022031 39.21725 2.439 38.34375 3.3125L26.328125 15.328125C26.017125 15.637125 25.790922 16.023313 25.669922 16.445312L24.058594 22.085938C23.909594 22.609938 24.053453 23.173594 24.439453 23.558594C24.724453 23.843594 25.108 23.998047 25.5 23.998047C25.638 23.998047 25.776109 23.980406 25.912109 23.941406L31.554688 22.328125C31.978687 22.207125 32.365922 21.979875 32.669922 21.671875L44.685547 9.65625C45.533547 8.80825 46 7.682375 46 6.484375C46 5.286375 45.533547 4.1595 44.685547 3.3125C43.811047 2.438 42.662422 2.0017031 41.513672 2.0019531 z M 10.5 7C6.92 7 4 9.92 4 13.5L4 30.5C4 34.08 6.92 37 10.5 37L12 37L12 42.5C12 43.45 12.530859 44.310234 13.380859 44.740234C13.740859 44.910234 14.12 45 14.5 45C15.03 45 15.56 44.83 16 44.5L26 37L37.5 37C41.08 37 44 34.08 44 30.5L44 13.5C44 13.39 44.000234 13.279688 43.990234 13.179688L34.089844 23.080078C33.549844 23.630078 32.859609 24.04 32.099609 24.25L26.460938 25.859375C26.150938 25.949375 25.83 26 25.5 26C24.58 26 23.679297 25.630469 23.029297 24.980469C22.129297 24.080469 21.790859 22.759062 22.130859 21.539062L23.75 15.890625C23.96 15.140625 24.370156 14.460156 24.910156 13.910156L31.830078 7L10.5 7 z" fill="#FFFFFF" />
</svg>