<?xml version="1.0" encoding="utf-8"?>
<svg xmlns="http://www.w3.org/2000/svg" viewBox="0 0 48 48" width="144" height="144">
  <path d="M22.561 29.939c.586.585.586 1.536 0 2.121C22.268 32.354 21.884 32.5 21.5 32.5s-.768-.146-1.061-.439l-7-7c-.586-.585-.586-1.536 0-2.121l7-7c.586-.586 1.535-.586 2.121 0 .586.585.586 1.536 0 2.121L18.121 22.5H31v-12C31 7.467 28.532 5 25.5 5h-13C9.468 5 7 7.467 7 10.5v27c0 3.033 2.468 5.5 5.5 5.5h13c3.032 0 5.5-2.467 5.5-5.5v-12H18.121L22.561 29.939zM41.5 22.5H31v3h10.5c.828 0 1.5-.671 1.5-1.5S42.328 22.5 41.5 22.5z" fill="#FFFFFF" />
</svg>