<?xml version="1.0" encoding="utf-8"?>
<svg xmlns="http://www.w3.org/2000/svg" viewBox="0 0 48 48" width="144" height="144">
  <path d="M24 4C18.624631 4 13.709541 6.0816752 10.107422 9.5625 A 2.0002 2.0002 0 1 0 12.886719 12.4375C15.758599 9.6623248 19.651369 8 24 8C32.860089 8 40 15.139911 40 24C40 32.860089 32.860089 40 24 40C19.698374 40 15.755383 38.301028 12.882812 35.552734 A 2.0002743 2.0002743 0 1 0 10.117188 38.443359C13.716617 41.887065 18.645626 44 24 44C35.021911 44 44 35.021911 44 24C44 12.978089 35.021911 4 24 4 z M 11.960938 15.980469 A 2.0002 2.0002 0 0 0 10.585938 16.585938L4.5859375 22.585938 A 2.0002 2.0002 0 0 0 4.5859375 25.414062L10.585938 31.414062 A 2.0002 2.0002 0 1 0 13.414062 28.585938L10.828125 26L29 26 A 2.0002 2.0002 0 1 0 29 22L10.828125 22L13.414062 19.414062 A 2.0002 2.0002 0 0 0 11.960938 15.980469 z" fill="#FFFFFF" />
</svg>