<?xml version="1.0" encoding="utf-8"?>
<svg xmlns="http://www.w3.org/2000/svg" viewBox="0 0 48 48" width="144" height="144">
  <path d="M12.5 6C9.467 6 7 8.467 7 11.5L7 14.5C7 16.077 7.6693281 17.496 8.7363281 18.5C7.6693281 19.504 7 20.923 7 22.5L7 25.5C7 27.077 7.6693281 28.496 8.7363281 29.5C7.6693281 30.504 7 31.923 7 33.5L7 36.5C7 39.533 9.467 42 12.5 42L25.056641 42C24.462641 41.073 23.979766 40.068 23.634766 39L12.5 39C11.122 39 10 37.878 10 36.5L10 36L23.050781 36C23.024781 35.669 23 35.338 23 35C23 32.42 23.760641 30.022 25.056641 28L12.5 28C11.122 28 10 26.878 10 25.5L10 25L27.695312 25C29.947312 23.128 32.842 22 36 22C37.772 22 39.46 22.357 41 23L41 22.5C41 20.923 40.330672 19.504 39.263672 18.5C40.330672 17.496 41 16.077 41 14.5L41 11.5C41 8.467 38.533 6 35.5 6L12.5 6 z M 10 14L38 14L38 14.5C38 15.878 36.878 17 35.5 17L12.5 17C11.122 17 10 15.878 10 14.5L10 14 z M 36 24C35.413 24 34.838344 24.049531 34.277344 24.144531L33.931641 25.576172C33.394641 27.801172 31.105156 29.123609 28.910156 28.474609L27.705078 28.117188C26.981078 29.050187 26.401 30.110813 26 31.257812L26.894531 32.117188C28.529531 33.691187 28.529531 36.308813 26.894531 37.882812L26 38.742188C26.401 39.889187 26.980078 40.948812 27.705078 41.882812L28.910156 41.525391C31.105156 40.876391 33.394641 42.198828 33.931641 44.423828L34.277344 45.855469C34.838344 45.950469 35.414 46 36 46C36.587 46 37.161656 45.950469 37.722656 45.855469L38.068359 44.423828C38.605359 42.198828 40.894844 40.876391 43.089844 41.525391L44.294922 41.882812C45.018922 40.949813 45.599 39.889187 46 38.742188L45.105469 37.882812C43.470469 36.309812 43.470469 33.690188 45.105469 32.117188L46 31.257812C45.599 30.110813 45.019922 29.051187 44.294922 28.117188L43.089844 28.474609C40.894844 29.123609 38.605359 27.801172 38.068359 25.576172L37.722656 24.144531C37.161656 24.049531 36.587 24 36 24 z M 36 32C37.657 32 39 33.343 39 35C39 36.657 37.657 38 36 38C34.343 38 33 36.657 33 35C33 33.343 34.343 32 36 32 z" fill="#FFFFFF" />
</svg>