<?xml version="1.0" encoding="utf-8"?>
<svg xmlns="http://www.w3.org/2000/svg" viewBox="0 0 48 48" width="144" height="144">
  <path d="M12.5 4C10.019 4 8 6.019 8 8.5L8 39.5C8 41.981 10.019 44 12.5 44L25.640625 44C23.391625 41.662 22 38.493 22 35L17.490234 35C16.662234 35 15.990234 34.328 15.990234 33.5C15.990234 32.741 16.555109 32.112672 17.287109 32.013672L17.490234 32L22.363281 32C22.707281 30.554 23.287313 29.215 24.070312 28L17.490234 28C16.662234 28 15.990234 27.314328 15.990234 26.486328C15.990234 25.727328 16.555109 25.099 17.287109 25L17.490234 24.986328L26.720703 24.986328C28.970703 23.122328 31.856 22 35 22C36.771 22 38.46 22.359906 40 23.003906L40 20L28.5 20C26.019 20 24 17.981 24 15.5L24 4L12.5 4 z M 27 4.8789062L27 15.5C27 16.327 27.673 17 28.5 17L39.121094 17L27 4.8789062 z M 35 24C28.925 24 24 28.925 24 35C24 41.075 28.925 46 35 46C41.075 46 46 41.075 46 35C46 28.925 41.075 24 35 24 z M 35 27C35.552 27 36 27.448 36 28L36 34L42 34C42.552 34 43 34.448 43 35C43 35.552 42.552 36 42 36L36 36L36 42C36 42.552 35.552 43 35 43C34.448 43 34 42.552 34 42L34 36L28 36C27.448 36 27 35.552 27 35C27 34.448 27.448 34 28 34L34 34L34 28C34 27.448 34.448 27 35 27 z" fill="#FFFFFF" />
</svg>