<?xml version="1.0" encoding="utf-8"?>
<svg xmlns="http://www.w3.org/2000/svg" viewBox="0 0 48 48" width="144" height="144">
  <path d="M14.552734 11C12.843818 11 11.200631 11.674337 9.984375 12.875L2.8320312 19.9375L2.8925781 19.880859C0.43692433 22.052749 0.43692432 25.947251 2.8925781 28.119141L2.8320312 28.0625L9.984375 35.125C11.200631 36.325663 12.843818 37 14.552734 37L40.5 37C44.071938 37 47 34.071938 47 30.5L47 17.5C47 13.928062 44.071938 11 40.5 11L14.552734 11 z M 17 22C18.105 22 19 22.895 19 24C19 25.105 18.105 26 17 26C15.895 26 15 25.105 15 24C15 22.895 15.895 22 17 22 z M 24 22C25.105 22 26 22.895 26 24C26 25.105 25.105 26 24 26C22.895 26 22 25.105 22 24C22 22.895 22.895 22 24 22 z M 31 22C32.105 22 33 22.895 33 24C33 25.105 32.105 26 31 26C29.895 26 29 25.105 29 24C29 22.895 29.895 22 31 22 z M 38 22C39.105 22 40 22.895 40 24C40 25.105 39.105 26 38 26C36.895 26 36 25.105 36 24C36 22.895 36.895 22 38 22 z" fill="#FFFFFF" />
</svg>