<?xml version="1.0" encoding="utf-8"?>
<svg xmlns="http://www.w3.org/2000/svg" viewBox="0 0 48 48" width="144" height="144">
  <path d="M36.970703 5.9726562 A 2.0002 2.0002 0 0 0 35 8L35 9.7695312C31.956093 7.4118008 28.138417 6 24 6C14.082241 6 6 14.082241 6 24C6 33.917759 14.082241 42 24 42C33.917759 42 42 33.917759 42 24C42 23.211034 41.93435 22.462241 41.845703 21.751953 A 2.0002 2.0002 0 1 0 37.876953 22.248047C37.952302 22.851759 38 23.430966 38 24C38 31.756241 31.756241 38 24 38C16.243759 38 10 31.756241 10 24C10 16.243759 16.243759 10 24 10C26.635057 10 29.081259 10.738832 31.177734 12L31 12 A 2.0002 2.0002 0 1 0 31 16L36.488281 16L37 16 A 2.0002 2.0002 0 0 0 39 14L39 8 A 2.0002 2.0002 0 0 0 36.970703 5.9726562 z" fill="#FFFFFF" />
</svg>