<?xml version="1.0" encoding="utf-8"?>
<svg xmlns="http://www.w3.org/2000/svg" viewBox="0 0 48 48" width="144" height="144">
  <path d="M35.5,8h-3.551C31.697,5.756,29.81,4,27.5,4h-7c-2.31,0-4.197,1.756-4.449,4H12.5C10.019,8,8,10.019,8,12.5v27c0,2.481,2.019,4.5,4.5,4.5h23c2.481,0,4.5-2.019,4.5-4.5v-27C40,10.019,37.981,8,35.5,8z M25.5,35h-10c-0.828,0-1.5-0.672-1.5-1.5s0.672-1.5,1.5-1.5h10c0.828,0,1.5,0.672,1.5,1.5S26.328,35,25.5,35z M25.5,29h-10c-0.828,0-1.5-0.672-1.5-1.5s0.672-1.5,1.5-1.5h10c0.828,0,1.5,0.672,1.5,1.5S26.328,29,25.5,29z M25.5,23h-10c-0.828,0-1.5-0.672-1.5-1.5s0.672-1.5,1.5-1.5h10c0.828,0,1.5,0.672,1.5,1.5S26.328,23,25.5,23z M27.5,10h-7C19.673,10,19,9.327,19,8.5S19.673,7,20.5,7h7C28.327,7,29,7.673,29,8.5S28.327,10,27.5,10z M32.5,35h-2c-0.828,0-1.5-0.672-1.5-1.5s0.672-1.5,1.5-1.5h2c0.828,0,1.5,0.672,1.5,1.5S33.328,35,32.5,35z M32.5,29h-2c-0.828,0-1.5-0.672-1.5-1.5s0.672-1.5,1.5-1.5h2c0.828,0,1.5,0.672,1.5,1.5S33.328,29,32.5,29z M32.5,23h-2c-0.828,0-1.5-0.672-1.5-1.5s0.672-1.5,1.5-1.5h2c0.828,0,1.5,0.672,1.5,1.5S33.328,23,32.5,23z" fill="#FFFFFF" />
</svg>