<?xml version="1.0" encoding="utf-8"?>
<svg xmlns="http://www.w3.org/2000/svg" viewBox="0 0 48 48" width="144" height="144">
  <path d="M12 4C9.791 4 8 5.791 8 8L8 40C8 42.209 9.791 44 12 44L36 44C38.209 44 40 42.209 40 40L40 34.949219L36.974609 37.974609C36.313609 38.635609 35.435 39 34.5 39C33.565 39 32.686391 38.635609 32.025391 37.974609C31.364391 37.313609 31 36.435 31 35.5C31 34.972 31.115938 34.463 31.335938 34L26.5 34C24.57 34 23 32.43 23 30.5C23 28.57 24.57 27 26.5 27L31.335938 27C31.115938 26.537 31 26.027 31 25.5C31 24.565 31.364391 23.686391 32.025391 23.025391C32.686391 22.364391 33.565 22 34.5 22C35.435 22 36.313609 22.364391 36.974609 23.025391L40 26.050781L40 19.742188C40 18.549187 39.525641 17.404547 38.681641 16.560547L27.439453 5.3183594C26.595453 4.4743594 25.450813 4 24.257812 4L12 4 z M 27 9.1210938L34.878906 17L28 17C27.449 17 27 16.551 27 16L27 9.1210938 z M 34.484375 23.984375 A 1.50015 1.50015 0 0 0 33.439453 26.560547L35.878906 29L26.5 29 A 1.50015 1.50015 0 1 0 26.5 32L35.878906 32L33.439453 34.439453 A 1.50015 1.50015 0 1 0 35.560547 36.560547L40.560547 31.560547 A 1.50015 1.50015 0 0 0 40.560547 29.439453L35.560547 24.439453 A 1.50015 1.50015 0 0 0 34.484375 23.984375 z" fill="#FFFFFF" />
</svg>