<?xml version="1.0" encoding="utf-8"?>
<svg xmlns="http://www.w3.org/2000/svg" viewBox="0 0 48 48" width="144" height="144">
  <path d="M24,4C12.972,4,4,12.972,4,24s8.972,20,20,20s20-8.972,20-20S35.028,4,24,4z M9.238,32.398l5.373-5.373c-0.547-1.534-0.751-3.231-0.511-5c0.56-4.117,3.63-7.558,7.639-8.651c1.57-0.428,3.086-0.47,4.504-0.225c0.803,0.138,1.119,1.125,0.543,1.701l-4.312,4.312c-1.825,1.825-1.915,4.906-0.016,6.653C23.317,26.605,24.409,27,25.5,27c1.151,0,2.304-0.439,3.182-1.318l4.468-4.468c0.576-0.576,1.562-0.26,1.701,0.543c0.245,1.418,0.203,2.934-0.225,4.504c-1.092,4.008-4.534,7.078-8.651,7.638c-1.769,0.241-3.466,0.036-5-0.511l-5.373,5.373C12.953,37.249,10.751,35.047,9.238,32.398z" fill="#FFFFFF" />
</svg>